HIERARCHY
ROOT Hips
{
    OFFSET 0.000000 0.000000 0.000000
    CHANNELS 6 Xposition Yposition Zposition Zrotation Xrotation Yrotation
    JOINT Spine
    {
        OFFSET -0.000000 14.517291 0.000000
        CHANNELS 3 Zrotation Xrotation Yrotation
        JOINT Spine1
        {
            OFFSET -0.000000 37.558300 0.000000
            CHANNELS 3 Zrotation Xrotation Yrotation
            JOINT Neck
            {
                OFFSET -0.000000 37.404057 3.400369
                CHANNELS 3 Zrotation Xrotation Yrotation
                JOINT Head
                {
                    OFFSET -0.000000 24.785618 -3.540803
                    CHANNELS 3 Zrotation Xrotation Yrotation
                    End Site
                    {
                        OFFSET -0.000000 35.408028 0.000000
                    }
                }
            }
            JOINT LeftShoulder
            {
                OFFSET 6.992933 33.973492 -0.192664
                CHANNELS 3 Zrotation Xrotation Yrotation
                JOINT LeftArm
                {
                    OFFSET 21.527611 0.000000 0.000000
                    CHANNELS 3 Zrotation Xrotation Yrotation
                    JOINT LeftForeArm
                    {
                        OFFSET 56.353916 0.000000 0.000000
                        CHANNELS 3 Zrotation Xrotation Yrotation
                        JOINT LeftHand
                        {
                            OFFSET 47.774071 0.000000 0.000000
                            CHANNELS 3 Zrotation Xrotation Yrotation
                            End Site
                            {
                                OFFSET 26.556021 0.000000 0.000000
                            }
                        }
                    }
                }
            }
            JOINT RightShoulder
            {
                OFFSET -7.065357 33.973492 -0.192664
                CHANNELS 3 Zrotation Xrotation Yrotation
                JOINT RightArm
                {
                    OFFSET -21.527611 0.000000 0.000000
                    CHANNELS 3 Zrotation Xrotation Yrotation
                    JOINT RightForeArm
                    {
                        OFFSET -56.353916 0.000000 0.000000
                        CHANNELS 3 Zrotation Xrotation Yrotation
                        JOINT RightHand
                        {
                            OFFSET -47.774071 0.000000 0.000000
                            CHANNELS 3 Zrotation Xrotation Yrotation
                            End Site
                            {
                                OFFSET -26.556021 0.000000 0.000000
                            }
                        }
                    }
                }
            }
        }
    }
    JOINT LeftUpLeg
    {
        OFFSET 17.704014 0.000000 0.000000
        CHANNELS 3 Zrotation Xrotation Yrotation
        JOINT LeftLeg
        {
            OFFSET -0.000000 -81.181816 0.000000
            CHANNELS 3 Zrotation Xrotation Yrotation
            JOINT LeftFoot
            {
                OFFSET -0.000000 -62.821102 0.000000
                CHANNELS 3 Zrotation Xrotation Yrotation
                JOINT LeftToeBase
                {
                    OFFSET -0.000000 -11.507608 26.556021
                    CHANNELS 3 Zrotation Xrotation Yrotation
                    End Site
                    {
                        OFFSET -0.000000 0.000000 7.081605
                    }
                }
            }
        }
    }
    JOINT RightUpLeg
    {
        OFFSET -17.704014 0.000000 0.000000
        CHANNELS 3 Zrotation Xrotation Yrotation
        JOINT RightLeg
        {
            OFFSET -0.000000 -81.181816 0.000000
            CHANNELS 3 Zrotation Xrotation Yrotation
            JOINT RightFoot
            {
                OFFSET -0.000000 -62.821102 0.000000
                CHANNELS 3 Zrotation Xrotation Yrotation
                JOINT RightToeBase
                {
                    OFFSET -0.000000 -11.507608 26.556021
                    CHANNELS 3 Zrotation Xrotation Yrotation
                    End Site
                    {
                        OFFSET -0.000000 0.000000 7.081605
                    }
                }
            }
        }
    }
}
MOTION
Frames:    11
Frame Time:    0.008333
29.889372    154.392593    -37.283138    -0.057052    -1.783568    -45.941868    1.474197    0.349420    1.197622    1.683617    -0.331758    0.404714    16.342709    2.795331    15.043585    -11.724688    8.724771    12.877192    9.336361    2.480363    -19.312151    -16.513464    -8.867019    -53.366085    -13.315733    -28.169340    -83.443871    -28.585098    -30.176380    -36.577991    -6.000422    4.107322    -0.374028    33.707020    9.337655    80.659096    4.079029    -4.897120    103.064285    10.761670    -7.718416    24.063650    18.246500    -20.836645    6.252109    -13.373755    22.558985    -3.367014    -6.870844    -0.662900    37.817215    0.000000    0.000000    0.000000    -17.758678    -2.039973    -5.955735    9.050844    34.049084    -2.552562    4.466384    -23.289370    -16.069933    0.000000    0.000000    0.000000    
29.884153    154.387573    -37.287285    -0.057698    -1.786949    -45.932770    1.556818    0.177433    1.087812    1.604714    -0.102661    0.363950    16.254557    2.940502    15.102528    -11.690292    8.507030    12.951145    9.269990    2.452885    -19.239870    -16.366379    -8.874769    -53.188831    -13.299396    -28.334974    -83.181374    -28.728519    -30.198799    -36.720741    -6.064740    4.086500    -0.089881    33.767853    9.241107    80.612083    4.059460    -4.908377    102.967964    10.793269    -7.684855    24.112482    18.249043    -20.837236    6.253431    -13.385175    22.560696    -3.362366    -6.866943    -0.662749    37.819263    0.000000    0.000000    0.000000    -17.759966    -2.039961    -5.942104    9.068309    34.064095    -2.557923    4.455967    -23.305126    -16.089067    0.000000    0.000000    0.000000    
29.877192    154.383545    -37.289246    -0.060761    -1.792312    -45.923153    1.493871    0.358704    1.205113    1.669666    -0.348341    0.407524    16.350643    2.809388    15.039550    -11.740872    8.659575    12.866219    9.333626    2.474211    -19.300594    -16.502409    -8.915469    -53.250668    -13.393467    -28.299944    -82.977417    -28.705051    -30.170822    -36.872536    -6.003733    4.118524    -0.378892    33.708374    9.329887    80.662544    4.072583    -4.872011    103.049072    10.778836    -7.679142    24.076023    18.246820    -20.836849    6.257865    -13.377294    22.569265    -3.374779    -6.870864    -0.665331    37.806194    0.000000    0.000000    0.000000    -17.759012    -2.030020    -5.947130    9.066275    34.069134    -2.551856    4.445833    -23.316252    -16.097292    0.000000    0.000000    0.000000    
29.867161    154.379456    -37.289028    -0.061838    -1.799969    -45.911312    1.496988    0.356358    1.211227    1.662750    -0.346095    0.409454    16.333721    2.801383    15.033546    -11.702959    8.633127    12.860589    9.340793    2.476151    -19.304966    -16.489256    -8.948878    -53.188957    -13.306130    -28.381420    -82.694351    -28.624176    -30.164923    -36.838268    -5.997587    4.124740    -0.386255    33.690506    9.325964    80.663902    4.070669    -4.872766    103.047562    10.785199    -7.676751    24.068357    18.244640    -20.834919    6.255620    -13.384784    22.575089    -3.394573    -6.874279    -0.677546    37.826180    0.000000    0.000000    0.000000    -17.762463    -2.018163    -5.943166    9.079254    34.071674    -2.563190    4.450269    -23.331724    -16.107197    0.000000    0.000000    0.000000    
29.855051    154.374176    -37.289421    -0.067479    -1.803216    -45.898308    1.511677    0.360858    1.211748    1.653416    -0.353615    0.409857    16.333519    2.805043    15.031155    -11.707698    8.602985    12.855218    9.345354    2.474144    -19.290794    -16.465662    -8.965476    -53.131821    -13.242106    -28.517405    -82.381531    -28.681250    -30.144129    -36.962887    -6.004522    4.116006    -0.383555    33.700069    9.333503    80.655098    4.080072    -4.850694    103.046738    10.784909    -7.666997    24.063757    18.247658    -20.833115    6.261380    -13.382092    22.584589    -3.399357    -6.867883    -0.679489    37.800995    0.000000    0.000000    0.000000    -17.755430    -2.004888    -5.945688    9.076591    34.077702    -2.586679    4.438254    -23.341425    -16.081709    0.000000    0.000000    0.000000    
29.842260    154.369354    -37.286068    -0.070586    -1.807578    -45.887348    1.516683    0.359192    1.215492    1.652249    -0.355763    0.411064    16.342016    2.810668    15.026479    -11.723696    8.574006    12.846028    9.351476    2.484233    -19.286900    -16.461031    -9.030957    -53.077999    -13.147535    -28.624979    -82.013039    -28.634991    -30.113689    -37.011597    -6.007001    4.121677    -0.380352    33.695072    9.321322    80.647720    4.089530    -4.833528    103.045570    10.793969    -7.658010    24.080399    18.249496    -20.832787    6.256094    -13.390329    22.593561    -3.397128    -6.867145    -0.685186    37.800751    0.000000    0.000000    0.000000    -17.753780    -1.991464    -5.959835    9.070987    34.081913    -2.569751    4.426187    -23.354595    -16.079082    0.000000    0.000000    0.000000    
29.827547    154.367096    -37.285965    -0.072571    -1.810103    -45.870457    1.517628    0.356271    1.216974    1.652556    -0.360583    0.411590    16.344093    2.811534    15.022162    -11.716437    8.550730    12.839418    9.361459    2.483930    -19.285847    -16.467093    -9.109710    -53.018539    -12.766824    -28.631685    -81.534981    -28.417173    -29.857586    -36.829716    -5.999920    4.115573    -0.377431    33.697506    9.317921    80.630226    4.108874    -4.795452    103.052109    10.765767    -7.652407    24.065479    18.247396    -20.832594    6.248899    -13.386550    22.596554    -3.411083    -6.862687    -0.685549    37.795185    0.000000    0.000000    0.000000    -17.749273    -1.974961    -5.965768    9.073119    34.079563    -2.577787    4.418430    -23.355442    -16.078512    0.000000    0.000000    0.000000    
29.813347    154.364609    -37.281197    -0.074318    -1.818457    -45.856220    1.523950    0.349333    1.217415    1.652122    -0.352145    0.411617    16.329088    2.805546    15.026124    -11.707561    8.535830    12.843616    9.348352    2.475126    -19.270998    -16.461529    -9.192182    -52.963898    -12.474661    -28.711813    -80.966354    -28.436745    -29.588327    -36.928871    -6.013952    4.114892    -0.374087    33.685890    9.320220    80.633385    4.110477    -4.797393    103.042137    10.749836    -7.658462    24.071613    18.240242    -20.827782    6.237643    -13.387627    22.600634    -3.413344    -6.868831    -0.693343    37.800808    0.000000    0.000000    0.000000    -17.751925    -1.956026    -5.960958    9.085564    34.076679    -2.606606    4.427612    -23.372501    -16.071699    0.000000    0.000000    0.000000    
29.795053    154.364044    -37.282722    -0.074900    -1.820574    -45.841473    1.526427    0.341460    1.214445    1.649169    -0.349291    0.410605    16.328573    2.799673    15.022295    -11.707142    8.519444    12.837131    9.346168    2.470466    -19.246748    -16.458767    -9.280410    -52.920719    -12.298686    -28.848640    -80.452347    -28.404100    -29.496647    -37.012344    -6.016692    4.101039    -0.363257    33.699535    9.324125    80.617416    4.134285    -4.758108    103.036316    10.751211    -7.646856    24.085993    18.241734    -20.820427    6.230257    -13.390360    22.586479    -3.421371    -6.869743    -0.685576    37.795994    0.000000    0.000000    0.000000    -17.745724    -1.944769    -5.979058    9.073945    34.084938    -2.557313    4.409847    -23.387148    -16.110048    0.000000    0.000000    0.000000    
29.780378    154.364410    -37.279877    -0.068910    -1.822002    -45.826538    1.523537    0.324648    1.219689    1.654954    -0.342663    0.412168    16.316303    2.802449    15.019825    -11.698538    8.495995    12.834657    9.345081    2.460614    -19.235395    -16.491566    -9.410548    -52.881756    -12.077177    -28.959736    -79.832695    -28.430058    -29.295250    -37.170044    -6.023238    4.114857    -0.369954    33.692181    9.315167    80.626358    4.140147    -4.747647    103.031441    10.746681    -7.644890    24.078306    18.233541    -20.823477    6.229560    -13.382341    22.587568    -3.433973    -6.877666    -0.689022    37.794140    0.000000    0.000000    0.000000    -17.743849    -1.938787    -5.988429    9.069432    34.087116    -2.567116    4.416022    -23.391893    -16.107904    0.000000    0.000000    0.000000    
29.761251    154.367233    -37.278595    -0.072292    -1.827493    -45.820541    1.520404    0.326242    1.231798    1.664090    -0.352030    0.416379    16.321512    2.801415    15.017671    -11.708279    8.491620    12.830490    9.339408    2.455199    -19.233780    -16.490658    -9.497890    -52.838589    -11.800818    -29.200731    -79.201981    -28.537117    -29.216404    -37.103481    -6.029675    4.113130    -0.370731    33.685848    9.320745    80.614746    4.147012    -4.734393    103.031311    10.739925    -7.642406    24.073103    18.238636    -20.809074    6.235679    -13.390390    22.579445    -3.432759    -6.877242    -0.688636    37.784832    0.000000    0.000000    0.000000    -17.734045    -1.922754    -5.981762    9.060519    34.080650    -2.580329    4.405977    -23.392918    -16.097715    0.000000    0.000000    0.000000    
